<?xml version="1.0" encoding="UTF-8" standalone="no"?>
<!-- Created with Inkscape (http://www.inkscape.org/) -->

<svg
   width="85.003792mm"
   height="43.252098mm"
   viewBox="0 0 85.003793 43.252098"
   version="1.1"
   id="svg1"
   inkscape:version="1.4 (86a8ad7, 2024-10-11)"
   sodipodi:docname="N_CARTA.svg"
   xmlns:inkscape="http://www.inkscape.org/namespaces/inkscape"
   xmlns:sodipodi="http://sodipodi.sourceforge.net/DTD/sodipodi-0.dtd"
   xmlns="http://www.w3.org/2000/svg"
   xmlns:svg="http://www.w3.org/2000/svg">
  <sodipodi:namedview
     id="namedview1"
     pagecolor="#ffffff"
     bordercolor="#000000"
     borderopacity="0.25"
     inkscape:showpageshadow="2"
     inkscape:pageopacity="0.0"
     inkscape:pagecheckerboard="0"
     inkscape:deskcolor="#d1d1d1"
     inkscape:document-units="mm"
     inkscape:zoom="0.73049944"
     inkscape:cx="334.70252"
     inkscape:cy="140.99942"
     inkscape:window-width="1920"
     inkscape:window-height="991"
     inkscape:window-x="-9"
     inkscape:window-y="-9"
     inkscape:window-maximized="1"
     inkscape:current-layer="layer1" />
  <defs
     id="defs1" />
  <g
     inkscape:label="Capa 1"
     inkscape:groupmode="layer"
     id="layer1"
     transform="translate(-16.378302,-111.26376)">
    <path
       style="fill:#ffcc00;stroke-width:0.190657"
       d="m 24.099144,154.25221 c -0.967777,-0.33926 -2.300578,-1.78074 -2.615492,-2.82879 -0.385729,-1.2837 -0.282967,-4.35966 0.208109,-6.22931 0.829725,-3.15898 3.064421,-7.16428 5.539717,-9.92897 l 1.1818,-1.31999 -0.536481,-0.20655 c -1.288843,-0.49624 -1.425269,-0.40716 -1.903402,1.24284 -0.485705,1.67612 -0.622566,1.89124 -1.139035,1.79043 -0.298469,-0.0583 -0.352957,-0.24772 -0.347875,-1.2095 0.0034,-0.62721 0.04621,-1.52647 0.09533,-1.99834 l 0.0893,-0.85797 -0.857957,-0.22297 c -0.471877,-0.12263 -1.42439,-0.22988 -2.116697,-0.23833 -1.439116,-0.0175 -2.454264,0.48876 -2.649457,1.3214 -0.07011,0.29909 -0.266924,0.49702 -0.532397,0.53543 -0.598062,0.0865 -0.564058,-0.7198 0.06172,-1.4635 0.956444,-1.13666 3.087275,-1.39176 5.8283,-0.69776 0.473362,0.11987 0.501353,0.0834 0.609724,-0.79358 0.06246,-0.50558 0.287354,-2.25601 0.499737,-3.88986 1.142246,-8.78718 0.864066,-14.04083 -0.801237,-15.13197 -0.43913,-0.28773 -0.542444,-0.28145 -1.546072,0.094 -1.633831,0.6113 -4.083187,3.0051 -5.025374,4.9114 -1.282955,2.59575 -1.052086,5.35861 0.549019,6.57025 0.780627,0.59073 2.103289,0.96786 2.832652,0.80767 0.325561,-0.0715 0.592301,-0.03 0.675772,0.10495 0.244918,0.39628 -0.358196,0.58349 -1.626861,0.50499 -1.331021,-0.0824 -2.480805,-0.55518 -3.184406,-1.3095 -2.004718,-2.14916 -0.917779,-6.89009 2.328971,-10.15833 2.000188,-2.01342 4.34064,-2.86847 5.79417,-2.11682 0.818899,0.42347 1.469654,1.84593 1.753298,3.83247 0.254138,1.77988 0.11815,6.10519 -0.302403,9.61835 -0.156909,1.31077 -0.283426,2.469 -0.281149,2.57387 0.01051,0.48471 0.432273,-0.67763 1.522644,-4.19645 1.329829,-4.29158 2.097841,-5.93675 3.341054,-7.15686 0.729253,-0.71571 0.971061,-0.84008 1.63343,-0.84008 0.926144,0 1.190939,0.29069 1.641997,1.80257 0.430423,1.44273 0.389103,4.29011 -0.12128,8.357 -0.618581,4.9291 -0.274093,5.4522 2.199086,3.3393 0.566811,-0.48424 1.301011,-1.29781 1.631554,-1.80792 0.358462,-0.55321 0.741911,-0.92749 0.950194,-0.92749 0.29673,0 0.349206,0.15967 0.349206,1.06259 0,0.8981 0.05025,1.05291 0.324614,1.00008 0.178537,-0.0343 0.614809,-0.44821 0.969491,-0.9196 0.354681,-0.47139 0.850475,-0.93744 1.10177,-1.03563 0.396988,-0.15515 0.553523,-0.0739 1.193782,0.61962 0.405285,0.43901 0.88151,0.79819 1.058279,0.79819 0.611422,0 1.607505,-0.53874 1.734217,-0.93797 0.146463,-0.46147 1.020245,-0.96861 1.668882,-0.96861 0.591788,0 1.291161,0.50958 1.291161,0.94077 0,0.49746 -0.48713,0.83324 -1.385723,0.95519 -0.761542,0.10332 -0.772009,0.11468 -0.425375,0.46075 0.47978,0.47899 1.654203,0.31196 3.371288,-0.47949 1.083049,-0.49921 1.299667,-0.67601 1.299667,-1.06075 0,-0.36813 0.08577,-0.44933 0.423356,-0.40074 0.324717,0.0468 0.48351,0.27452 0.681531,0.97771 0.148783,0.52831 0.353121,0.88745 0.482263,0.84763 0.123252,-0.0381 0.481479,-0.55758 0.796063,-1.15455 0.385677,-0.7319 0.688769,-1.0856 0.930568,-1.08596 0.304853,-3.7e-4 0.342016,0.10159 0.247961,0.68122 -0.148594,0.91568 -1.006226,2.34186 -1.560017,2.59418 -0.713818,0.32523 -1.373597,0.0523 -1.637475,-0.67747 l -0.231973,-0.64152 -1.21056,0.5489 c -2.407762,1.09172 -4.199591,1.11389 -4.680743,0.0578 -0.197699,-0.4339 -0.223927,-0.43875 -0.7897,-0.14618 -0.980749,0.50717 -1.924024,0.42533 -2.603739,-0.22587 l -0.590713,-0.56594 -0.609801,0.6962 c -0.335392,0.38292 -0.801083,0.79136 -1.03487,0.90767 -0.588096,0.29255 -1.34898,0.0592 -1.644129,-0.50399 l -0.247036,-0.47149 -0.995754,1.14941 c -0.547663,0.63217 -1.332683,1.30469 -1.744487,1.49447 -0.775012,0.35718 -0.976351,0.63105 -0.463918,0.63105 0.162059,0 0.51057,0.21592 0.774471,0.47982 0.351967,0.35197 0.445422,0.59326 0.350734,0.90562 -0.4249,1.40162 -2.052833,1.96481 -5.165529,1.78703 l -2.131131,-0.12171 -1.179805,1.28681 c -0.648894,0.70775 -1.633784,1.97319 -2.188642,2.81207 -4.192315,6.33836 -4.972081,12.66678 -1.832167,14.86951 0.754656,0.52941 0.93789,0.57234 2.372794,0.55589 2.926655,-0.0336 4.936167,-1.2665 10.691699,-6.55993 3.550827,-3.26575 4.022513,-3.63765 4.547479,-3.58538 0.814069,0.081 0.841996,0.41077 0.05878,0.69399 -0.428941,0.1551 -0.860218,0.54413 -1.241694,1.12005 -0.321467,0.48534 -0.54393,0.92297 -0.494361,0.97254 0.04957,0.0496 0.471374,-0.22229 0.937345,-0.60411 0.937511,-0.76822 1.414464,-0.8496 2.213336,-0.3777 0.457587,0.2703 0.621972,0.28084 1.125696,0.0722 0.409929,-0.1698 0.589858,-0.37398 0.589858,-0.66939 0,-0.23378 0.09581,-0.6999 0.212915,-1.03583 0.16221,-0.46531 0.309766,-0.59694 0.619636,-0.55276 0.344714,0.0491 0.398196,0.16702 0.350805,0.77298 -0.05266,0.67331 0.175819,0.94728 0.437229,0.52431 0.06481,-0.10484 0.379894,-0.19066 0.700192,-0.19066 0.55318,0 0.576675,0.0311 0.468935,0.61963 -0.302432,1.65221 -0.350538,2.5747 -0.141018,2.70419 0.29605,0.18297 1.283677,-0.45786 2.239819,-1.45334 l 0.789383,-0.82186 -0.155831,-1.04862 c -0.0857,-0.57674 -0.162094,-2.05243 -0.169749,-3.27932 l -0.01392,-2.2307 -1.081217,-0.0572 c -0.651661,-0.0344 -1.112447,-0.15186 -1.159829,-0.29549 -0.05041,-0.1528 0.11524,-0.23908 0.461581,-0.24042 0.297107,-0.001 0.850321,-0.0535 1.229369,-0.1161 l 0.689177,-0.11399 0.130988,-1.73517 c 0.14446,-1.91363 0.327147,-2.32904 0.891431,-2.02705 0.325657,0.17429 0.34749,0.35185 0.23614,1.92054 -0.09779,1.37759 -0.06826,1.76297 0.145454,1.89827 0.14748,0.0934 1.068908,0.17106 2.047613,0.17268 1.337509,0.002 1.759893,0.0622 1.700654,0.24124 -0.0535,0.1618 -0.716755,0.26892 -2.065453,0.33365 l -1.986637,0.0953 -0.05767,1.81123 c -0.107862,3.38729 0.584547,6.26296 1.552899,6.44946 0.80523,0.15507 1.248092,-0.15991 1.872835,-1.33206 0.696978,-1.30766 1.814084,-2.25753 2.654993,-2.25753 0.811983,0 0.827519,0.30956 0.03506,0.69869 -0.707171,0.34726 -1.947637,1.85477 -1.716449,2.08595 0.06629,0.0663 0.48327,-0.18994 0.926604,-0.56942 0.89517,-0.76624 1.386434,-0.84686 2.225578,-0.36526 0.536385,0.30785 0.606602,0.3063 1.351995,-0.0298 0.928491,-0.41868 1.21866,-0.26495 0.623006,0.33006 -0.359885,0.3595 -0.632661,0.4237 -1.800651,0.42376 -1.18893,8e-5 -1.467452,0.0682 -2.043816,0.50039 -0.995017,0.74601 -1.514812,0.97309 -1.971992,0.86156 -0.226172,-0.0552 -0.577762,0.0234 -0.781311,0.17444 -0.20355,0.15112 -0.753057,0.27477 -1.221129,0.27477 -0.747708,0 -0.940922,-0.0944 -1.591388,-0.77826 l -0.740349,-0.77828 -0.746794,0.67469 c -1.366075,1.23416 -2.627739,1.69423 -3.44571,1.25646 -0.30622,-0.16387 -0.36878,-0.40645 -0.36878,-1.42993 0,-1.1661 -0.02412,-1.23256 -0.44735,-1.23256 -0.246044,0 -0.72689,0.13946 -1.068545,0.3099 -0.462887,0.23091 -0.887982,0.27853 -1.668045,0.18685 -0.980069,-0.11519 -1.089609,-0.0854 -1.717162,0.46551 -0.368673,0.3237 -0.893373,0.67335 -1.166,0.77701 -0.634104,0.24108 -1.368525,0.0593 -1.368525,-0.3386 0,-0.17846 -0.912464,0.57595 -2.169588,1.79377 -3.21369,3.11324 -5.532907,4.65243 -7.99981,5.30926 -1.260549,0.33562 -3.624746,0.32662 -4.606525,-0.0175 z m 10.069542,-20.51098 c 2.207256,-0.61292 1.671159,-2.36926 -0.57608,-1.8873 -0.969081,0.20783 -2.926474,1.26549 -3.054867,1.65068 -0.138574,0.41571 2.39209,0.58064 3.630947,0.23662 z m -3.828448,-1.20794 c 0.706661,-0.45785 1.839435,-0.98225 2.519263,-1.16627 l 1.235255,-0.33438 -0.37437,-0.47594 c -0.474945,-0.60379 -0.496057,-2.22915 -0.0717,-5.52 0.374315,-2.90276 0.320839,-8.20674 -0.0877,-8.69829 -0.356037,-0.42839 -0.69574,-0.39548 -1.178287,0.11413 -0.575512,0.60781 -1.746728,2.9903 -2.460295,5.00476 -0.663398,1.87283 -3.278956,10.99677 -3.180628,11.0951 0.06491,0.0649 2.058892,0.7864 2.21912,0.80296 0.05243,0.007 0.673133,-0.36451 1.37934,-0.82207 z m 17.659061,-5.62136 c 0.18876,-0.1196 0.199176,-0.20068 0.03853,-0.29995 -0.295147,-0.18241 -0.828881,0.0358 -0.679358,0.2777 0.143883,0.2328 0.299981,0.23822 0.640823,0.0223 z m 18.183978,23.42991 c -0.205143,-0.32848 -0.444616,-0.38131 -1.728541,-0.38131 -1.311391,0 -1.540198,-0.0531 -1.904956,-0.44126 -0.913461,-0.97234 -0.246684,-2.19526 2.052284,-3.76407 0.517322,-0.35302 1.031874,-0.8422 1.143447,-1.08709 0.235999,-0.51795 0.274385,-6.31113 0.04422,-6.67371 -0.113333,-0.17852 -0.49428,-0.0195 -1.474673,0.61555 -1.437184,0.93099 -1.607853,0.99531 -1.607853,0.60604 0,-0.14211 0.686161,-0.76024 1.524805,-1.37364 1.686464,-1.23351 1.997741,-1.72508 1.360356,-2.14828 -0.507434,-0.33693 -0.514303,-0.6185 -0.02531,-1.0372 0.261184,-0.22364 0.381314,-0.56242 0.381314,-1.07538 0,-0.99112 0.156346,-1.35207 0.585662,-1.35207 0.430834,0 0.696064,0.46019 0.861496,1.49472 0.08669,0.54212 0.273752,0.87751 0.613625,1.10021 l 0.488917,0.32035 -0.559886,0.44798 c -0.677186,0.54185 -0.52648,0.55405 0.985827,0.0798 1.453533,-0.45577 5.498667,-0.85919 7.020333,-0.70014 1.356384,0.14177 2.989381,1.03801 3.554115,1.95061 0.847958,1.37027 0.203753,3.41075 -1.903087,6.02794 -1.998339,2.4824 -4.429851,4.23048 -8.215177,5.9061 -0.950004,0.42052 -1.82356,0.95504 -2.111115,1.29174 -0.576401,0.67491 -0.764038,0.70827 -1.085807,0.19304 z m -0.413025,-1.3413 c 0.310654,-0.16627 0.36878,-0.40762 0.36878,-1.53124 0,-1.56311 -0.225562,-1.77616 -1.184842,-1.11915 -1.673674,1.1463 -2.53316,2.43291 -1.818009,2.72149 0.439882,0.17749 2.261438,0.12832 2.634071,-0.0711 z m 3.928721,-1.03908 c 2.371679,-0.95634 3.889754,-2.00943 6.180136,-4.28718 1.63599,-1.62696 2.155231,-2.28515 2.740219,-3.47352 0.583127,-1.18456 0.697927,-1.59322 0.597678,-2.12759 -0.154369,-0.82285 -1.322695,-1.92502 -2.340019,-2.20752 -2.295537,-0.63744 -8.760694,0.30476 -9.441433,1.37593 -0.08071,0.127 -0.148057,1.606 -0.149659,3.28667 -0.0037,3.93392 -0.08429,3.80581 2.491189,3.96272 1.067926,0.0651 1.987481,0.16409 2.043454,0.22005 0.257853,0.25787 -0.327051,0.39048 -2.120229,0.48074 -1.067383,0.0537 -2.047939,0.16708 -2.179013,0.25193 -0.157699,0.10202 -0.238322,0.66641 -0.238322,1.66824 0,1.8272 -0.0048,1.82558 2.415999,0.84953 z m 13.60122,1.81604 c -1.179443,-0.40711 -2.289912,-1.45623 -2.289912,-2.16342 0,-1.17463 3.161175,-3.92062 3.774353,-3.27864 0.07375,0.0772 -0.121005,0.32347 -0.432811,0.54721 -1.003619,0.72012 -2.355013,2.11018 -2.48204,2.55305 -0.188777,0.65812 0.735409,1.47311 1.970959,1.73808 1.28474,0.27554 3.917795,0.27574 5.215414,3.9e-4 2.01425,-0.42735 3.965526,-1.85901 3.965526,-2.90948 0,-0.64922 -1.008478,-1.92947 -1.946197,-2.47068 -0.983549,-0.56764 -2.905515,-1.23189 -5.891347,-2.03607 -1.217227,-0.32783 -2.482717,-0.76001 -2.812184,-0.96036 -1.179502,-0.7173 -0.604573,-1.69074 1.679561,-2.84375 1.885595,-0.95185 3.114355,-1.21391 5.765611,-1.22962 2.586541,-0.0154 3.024834,0.11493 2.552124,0.75853 -0.26587,0.36197 -0.287104,0.36251 -0.866695,0.0219 -1.749337,-1.02806 -9.442505,1.21827 -8.911497,2.60206 0.05657,0.14747 0.976714,0.50009 2.072692,0.79433 5.655662,1.51838 6.907436,2.0491 8.142461,3.45217 0.433093,0.49202 0.787435,0.96985 0.787435,1.06184 0,0.0921 0.363847,0.14427 0.808548,0.11616 0.681353,-0.0431 0.838419,0.0165 0.998496,0.37786 0.257323,0.58112 0.378359,0.54448 0.879428,-0.26626 l 0.429686,-0.69525 0.349378,0.43148 0.349393,0.43148 0.359513,-0.83251 c 0.197741,-0.4579 0.760567,-1.79183 1.250725,-2.96431 0.934884,-2.23626 1.623047,-3.24273 1.342607,-1.96361 -0.08,0.36498 -0.477258,1.66337 -0.88276,2.88533 -0.851428,2.56578 -0.877056,2.84545 -0.340399,3.71377 0.434179,0.70251 0.583916,0.74564 1.490989,0.42944 0.78157,-0.27246 1.00691,-0.0507 0.42657,0.41978 -1.02936,0.83451 -2.695749,0.12259 -2.695749,-1.1517 0,-0.7426 -0.285956,-0.74717 -0.543393,-0.009 -0.170402,0.4888 -0.296554,0.57196 -0.867637,0.57196 -0.367534,0 -0.887624,0.1 -1.155752,0.22211 -0.418266,0.19058 -0.549893,0.16351 -0.926877,-0.19064 -0.241654,-0.22702 -0.50452,-0.41278 -0.584129,-0.41278 -0.07961,0 -0.575568,0.4714 -1.102136,1.04755 -1.053905,1.15314 -2.618709,2.01058 -4.314645,2.36425 -1.609911,0.33573 -4.353183,0.25537 -5.565309,-0.16301 z m -7.416056,-1.46296 c -0.36801,-0.25776 -0.425886,-0.42642 -0.336126,-0.97955 0.163028,-1.00462 1.027707,-2.10941 2.060636,-2.63282 1.414952,-0.71701 2.242387,-0.56386 2.607174,0.48257 0.4364,1.25187 -0.532369,2.68228 -2.139963,3.1597 -1.213651,0.3604 -1.64285,0.35456 -2.191721,-0.03 z m 2.590688,-0.82483 c 0.8325,-0.50761 1.304927,-1.4389 1.032855,-2.03605 -0.112825,-0.24762 -0.344149,-0.45022 -0.51406,-0.45022 -1.000534,0 -2.749765,1.52027 -2.749765,2.38986 0,0.42596 0.07594,0.46994 0.810296,0.46929 0.466964,-3.8e-4 1.068912,-0.15841 1.420674,-0.37288 z M 55.509898,129.2433 c -0.683436,-0.27578 -0.01813,-1.97945 1.217923,-3.11881 0.678498,-0.62542 0.967297,-0.76984 1.444777,-0.72253 0.824021,0.0817 0.857033,0.41016 0.06983,0.6948 -0.428942,0.15512 -0.860219,0.54416 -1.241694,1.12007 -0.321468,0.48533 -0.543931,0.92297 -0.494362,0.97253 0.04957,0.0496 0.471374,-0.22227 0.937345,-0.60411 0.939311,-0.76969 1.414264,-0.84972 2.219558,-0.37402 0.510824,0.30174 0.586789,0.30003 1.318296,-0.0298 0.919674,-0.41471 1.206446,-0.25816 0.61281,0.33456 -0.361823,0.36126 -0.631811,0.42369 -1.832506,0.42369 -1.184721,0 -1.47874,0.0661 -1.852951,0.41631 -0.856647,0.8018 -1.771977,1.14036 -2.399022,0.88734 z"
       id="path1"
       inkscape:export-filename="N_CARTA.png"
       inkscape:export-xdpi="96"
       inkscape:export-ydpi="96" />
  </g>
</svg>
